<svg xmlns="http://www.w3.org/2000/svg" viewBox="0 0 512 512" width="512" height="512">
  <defs>
    <!-- Gradiente principal laranja-vermelho -->
    <linearGradient id="mainGradient" x1="0%" y1="0%" x2="100%" y2="100%">
      <stop offset="0%" style="stop-color:#FCD34D;stop-opacity:1" />
      <stop offset="30%" style="stop-color:#F59E0B;stop-opacity:1" />
      <stop offset="70%" style="stop-color:#EA580C;stop-opacity:1" />
      <stop offset="100%" style="stop-color:#DC2626;stop-opacity:1" />
    </linearGradient>
    
    <!-- Gradiente da seta -->
    <linearGradient id="arrowGradient" x1="0%" y1="100%" x2="100%" y2="0%">
      <stop offset="0%" style="stop-color:#FDE68A;stop-opacity:1" />
      <stop offset="50%" style="stop-color:#FCD34D;stop-opacity:1" />
      <stop offset="100%" style="stop-color:#F59E0B;stop-opacity:1" />
    </linearGradient>
    
    <!-- Sombra suave -->
    <filter id="shadow" x="-20%" y="-20%" width="140%" height="140%">
      <feDropShadow dx="4" dy="8" stdDeviation="8" flood-color="#000000" flood-opacity="0.2"/>
    </filter>
  </defs>
  
  <!-- Background circle para melhor contraste -->
  <circle cx="256" cy="256" r="240" fill="url(#mainGradient)" filter="url(#shadow)"/>
  
  <!-- Letra A principal -->
  <path d="M 140 380 L 190 240 L 200 240 L 210 280 L 300 280 L 310 240 L 320 240 L 370 380 L 350 380 L 335 340 L 175 340 L 160 380 Z M 185 320 L 325 320 L 255 160 Z" 
        fill="url(#mainGradient)" 
        stroke="#FFFFFF" 
        stroke-width="3"/>
  
  <!-- Seta ascendente integrada -->
  <path d="M 320 160 L 420 60 L 450 90 L 380 160 L 450 230 L 420 260 L 320 160" 
        fill="url(#arrowGradient)" 
        stroke="#FFFFFF" 
        stroke-width="2"/>
  
  <!-- Parte horizontal da seta -->
  <rect x="320" y="145" width="100" height="30" rx="15" 
        fill="url(#arrowGradient)" 
        stroke="#FFFFFF" 
        stroke-width="2"/>
  
  <!-- Destacar o centro da letra A -->
  <rect x="230" y="280" width="50" height="25" rx="12" 
        fill="#FFFFFF" 
        opacity="0.9"/>
  
  <!-- Brilho sutil no topo -->
  <ellipse cx="256" cy="120" rx="60" ry="20" 
           fill="#FFFFFF" 
           opacity="0.3"/>
</svg> 